<svg width="929" height="134" viewBox="0 0 929 134" fill="none" xmlns="http://www.w3.org/2000/svg">
<rect width="548" height="134" rx="3" fill="#154FA2"/>
<path fill-rule="evenodd" clip-rule="evenodd" d="M570 0H568V134H570V0ZM590 2C590 0.895429 590.895 0 592 0C593.105 0 594 0.895431 594 2V132C594 133.105 593.105 134 592 134C590.895 134 590 133.105 590 132V2ZM616 0C614.343 0 613 1.34314 613 3V131C613 132.657 614.343 134 616 134H624C625.657 134 627 132.657 627 131V3C627 1.34315 625.657 0 624 0H616ZM647 3C647 1.34314 648.343 0 650 0H679C680.657 0 682 1.34315 682 3V131C682 132.657 680.657 134 679 134H650C648.343 134 647 132.657 647 131V3ZM705 0C703.343 0 702 1.34314 702 3V131C702 132.657 703.343 134 705 134H768C769.657 134 771 132.657 771 131V3C771 1.34315 769.657 0 768 0H705ZM794 0C792.343 0 791 1.34314 791 3V131C791 132.657 792.343 134 794 134H926C927.657 134 929 132.657 929 131V3C929 1.34315 927.657 0 926 0H794Z" fill="url(#paint0_linear_81_64)"/>
<defs>
<linearGradient id="paint0_linear_81_64" x1="568" y1="66.4071" x2="929" y2="66.4071" gradientUnits="userSpaceOnUse">
<stop stop-color="#154FA2"/>
<stop offset="1" stop-color="#46BFB2"/>
</linearGradient>
</defs>
</svg>
