<svg width="390" height="60" viewBox="0 0 390 60" fill="none" xmlns="http://www.w3.org/2000/svg">
<path fill-rule="evenodd" clip-rule="evenodd" d="M1.08033 0C0.483681 0 0 0.483682 0 1.08033V58.9197C0 59.5163 0.483681 60 1.08033 60C1.67698 60 2.16066 59.5163 2.16066 58.9197V1.08033C2.16066 0.483681 1.67698 0 1.08033 0ZM23.7673 2.16066C23.7673 0.96736 24.7347 0 25.928 0C27.1213 0 28.0886 0.967363 28.0886 2.16066V57.8393C28.0886 59.0326 27.1213 60 25.928 60C24.7347 60 23.7673 59.0326 23.7673 57.8393V2.16066ZM51.615 0C49.9581 0 48.615 1.34315 48.615 3V57C48.615 58.6569 49.9581 60 51.615 60H60.7396C62.3965 60 63.7396 58.6569 63.7396 57V3C63.7396 1.34315 62.3965 0 60.7396 0H51.615ZM85.3463 3C85.3463 1.34315 86.6894 0 88.3463 0H120.158C121.815 0 123.158 1.34315 123.158 3V57C123.158 58.6569 121.815 60 120.158 60H88.3463C86.6894 60 85.3463 58.6569 85.3463 57V3ZM147.765 0C146.108 0 144.765 1.34315 144.765 3V57C144.765 58.6569 146.108 60 147.765 60H216.307C217.964 60 219.307 58.6569 219.307 57V3C219.307 1.34315 217.964 0 216.307 0H147.765ZM243.914 0C242.257 0 240.914 1.34315 240.914 3V57C240.914 58.6569 242.257 60 243.914 60H387C388.657 60 390 58.6569 390 57V3C390 1.34315 388.657 0 387 0H243.914Z" fill="url(#paint0_linear_73_88)"/>
<defs>
<linearGradient id="paint0_linear_73_88" x1="-7.14428e-07" y1="29.7345" x2="390" y2="29.7345" gradientUnits="userSpaceOnUse">
<stop stop-color="#154FA2"/>
<stop offset="1" stop-color="#46BFB2"/>
</linearGradient>
</defs>
</svg>
