<svg width="361" height="113" viewBox="0 0 361 113" fill="none" xmlns="http://www.w3.org/2000/svg">
<path fill-rule="evenodd" clip-rule="evenodd" d="M1 0C0.447693 0 0 0.447754 0 1V112C0 112.552 0.447693 113 1 113C1.55231 113 2 112.552 2 112V1C2 0.447754 1.55231 0 1 0ZM22 2C22 0.895508 22.8954 0 24 0C25.1046 0 26 0.895508 26 2V111C26 112.104 25.1046 113 24 113C22.8954 113 22 112.104 22 111V2ZM48 0C46.3431 0 45 1.34326 45 3V110C45 111.657 46.3431 113 48 113H56C57.6569 113 59 111.657 59 110V3C59 1.34326 57.6569 0 56 0H48ZM79 3C79 1.34326 80.3431 0 82 0H111C112.657 0 114 1.34326 114 3V110C114 111.657 112.657 113 111 113H82C80.3431 113 79 111.657 79 110V3ZM137 0C135.343 0 134 1.34326 134 3V110C134 111.657 135.343 113 137 113H200C201.657 113 203 111.657 203 110V3C203 1.34326 201.657 0 200 0H137ZM226 0C224.343 0 223 1.34326 223 3V110C223 111.657 224.343 113 226 113H358C359.657 113 361 111.657 361 110V3C361 1.34326 359.657 0 358 0H226Z" fill="url(#paint0_linear_47_48)"/>
<defs>
<linearGradient id="paint0_linear_47_48" x1="-6.61304e-07" y1="56" x2="361" y2="56" gradientUnits="userSpaceOnUse">
<stop stop-color="#154FA2"/>
<stop offset="1" stop-color="#46BFB2"/>
</linearGradient>
</defs>
</svg>
