<svg width="243" height="56" viewBox="0 0 243 56" fill="none" xmlns="http://www.w3.org/2000/svg">
<path d="M150.687 13.9645C151.795 14.5104 152.713 15.3762 153.318 16.4487C153.92 17.6253 154.233 18.9265 154.233 20.2463C154.233 21.5662 153.92 22.8674 153.318 24.044C152.713 25.1096 151.795 25.9656 150.687 26.4974C149.418 27.0901 148.027 27.3806 146.626 27.346H142.164V13.0957H146.626C148.03 13.0608 149.422 13.3587 150.687 13.9645ZM150.861 24.3507C151.834 23.3764 152.321 22.01 152.321 20.2514C152.321 18.4797 151.831 17.0963 150.851 16.101C149.871 15.1063 148.462 14.6088 146.626 14.6086H144.035V25.8127H146.626C148.476 25.8127 149.888 25.3253 150.861 24.3507ZM158.572 13.0956V27.346H156.701V13.0957L158.572 13.0956ZM172.615 17.2256C172.245 16.4253 171.644 15.7527 170.888 15.2935C170.092 14.8258 169.18 14.5885 168.256 14.6086C167.31 14.5947 166.377 14.8311 165.552 15.2935C164.746 15.7547 164.09 16.4357 163.66 17.2562C163.207 18.174 162.972 19.1829 162.972 20.2055C162.972 21.228 163.207 22.2369 163.66 23.1547C164.092 23.9711 164.748 24.6483 165.552 25.1072C166.376 25.5698 167.31 25.8062 168.256 25.7922C169.527 25.8389 170.766 25.3915 171.71 24.545C172.643 23.6562 173.208 22.453 173.294 21.1715H167.577V19.6586H175.288V21.0897C175.187 22.2369 174.806 23.3423 174.178 24.3099C173.557 25.2756 172.701 26.0702 171.69 26.6202C170.638 27.1919 169.455 27.4842 168.256 27.4687C166.982 27.483 165.726 27.162 164.617 26.5383C163.529 25.9276 162.63 25.0334 162.016 23.9521C161.388 22.8018 161.059 21.514 161.059 20.2055C161.059 18.8969 161.388 17.6091 162.016 16.4588C162.628 15.3732 163.527 14.4752 164.617 13.8623C165.801 13.2204 167.134 12.9003 168.483 12.9345C169.831 12.9686 171.146 13.3556 172.296 14.0566C173.472 14.8102 174.37 15.922 174.856 17.2256L172.615 17.2256ZM179.626 13.0956V27.346H177.755V13.0957L179.626 13.0956ZM191.634 13.0956V14.6086H187.727V27.346H185.856V14.6086H181.929V13.0957L191.634 13.0956ZM202.408 24.177H196.158L195.006 27.346H193.032L198.214 13.1774H200.373L205.534 27.346H203.56L202.408 24.177ZM201.874 22.6639L199.283 15.4673L196.692 22.6639H201.874ZM209.666 25.8331H214.683V27.346H207.795V13.0957H209.666L209.666 25.8331ZM141.929 39.1249C142.255 38.5039 142.749 37.9862 143.355 37.6307C143.973 37.2734 144.677 37.0899 145.392 37.0998C146.025 37.0956 146.649 37.2494 147.207 37.5472C147.734 37.8159 148.177 38.2223 148.489 38.7228V34.3239H149.892V45.549H148.489V43.9867C148.201 44.496 147.779 44.918 147.268 45.2077C146.693 45.5356 146.039 45.7009 145.377 45.6856C144.664 45.6952 143.963 45.5055 143.353 45.138C142.744 44.7706 142.25 44.2402 141.929 43.6073C141.574 42.9124 141.396 42.1416 141.41 41.3624C141.393 40.5853 141.572 39.8162 141.929 39.1249ZM148.107 39.7392C147.872 39.2936 147.515 38.923 147.078 38.6699C146.643 38.4275 146.154 38.2996 145.656 38.2983C145.158 38.2969 144.668 38.4223 144.232 38.6623C143.798 38.913 143.443 39.2812 143.21 39.7241C142.946 40.2295 142.815 40.7931 142.829 41.3624C142.815 41.939 142.946 42.5099 143.21 43.0233C143.443 43.4705 143.797 43.8438 144.232 44.1003C144.663 44.3491 145.153 44.4775 145.651 44.472C146.152 44.4769 146.644 44.3486 147.078 44.1003C147.517 43.8457 147.874 43.4722 148.107 43.0233C148.371 42.5149 148.502 41.9492 148.489 41.3775C148.502 40.8082 148.371 40.2447 148.107 39.7392ZM159.823 41.9084H153.142C153.142 42.2587 153.213 42.6053 153.351 42.9277C153.489 43.2501 153.69 43.5417 153.943 43.7851C154.197 44.0285 154.497 44.2188 154.825 44.3446C155.154 44.4704 155.505 44.5292 155.857 44.5175C156.389 44.5369 156.914 44.3911 157.36 44.1003C157.756 43.8296 158.053 43.4384 158.206 42.9855H159.702C159.489 43.7678 159.016 44.4552 158.359 44.9347C157.631 45.4529 156.751 45.7169 155.857 45.6856C155.113 45.698 154.379 45.5149 153.729 45.1547C153.104 44.8011 152.593 44.2775 152.257 43.6453C151.889 42.9463 151.706 42.1662 151.723 41.3775C151.705 40.5931 151.883 39.8165 152.242 39.1173C152.57 38.4882 153.076 37.9687 153.698 37.6231C154.36 37.2653 155.104 37.0849 155.857 37.0998C156.592 37.0854 157.318 37.2633 157.962 37.6155C158.559 37.9456 159.048 38.4375 159.374 39.0339C159.71 39.6611 159.881 40.3633 159.869 41.0742C159.869 41.3529 159.853 41.6313 159.823 41.9084ZM158.085 39.4283C157.857 39.0549 157.526 38.7547 157.131 38.5636C156.715 38.3633 156.258 38.2621 155.796 38.2678C155.134 38.2528 154.492 38.4918 154.003 38.9352C153.491 39.4201 153.188 40.0834 153.157 40.786H158.435C158.448 40.3097 158.327 39.8393 158.085 39.4283ZM164.812 44.2749L167.405 37.2363H168.885L165.605 45.549H163.988L160.708 37.2363H162.203L164.812 44.2749ZM177.84 41.9084H171.158C171.158 42.2587 171.229 42.6053 171.367 42.9277C171.505 43.2501 171.706 43.5417 171.96 43.7851C172.213 44.0285 172.513 44.2188 172.842 44.3446C173.17 44.4704 173.521 44.5292 173.873 44.5175C174.406 44.5369 174.931 44.3911 175.376 44.1003C175.772 43.8296 176.069 43.4384 176.223 42.9854H177.718C177.506 43.7678 177.032 44.4552 176.375 44.9347C175.648 45.4529 174.768 45.7169 173.873 45.6856C173.129 45.698 172.395 45.5149 171.745 45.1547C171.12 44.8011 170.609 44.2774 170.273 43.6453C169.906 42.9462 169.722 42.1661 169.739 41.3775C169.722 40.5931 169.9 39.8165 170.258 39.1173C170.586 38.4882 171.093 37.9687 171.715 37.6231C172.376 37.2653 173.12 37.0849 173.873 37.0998C174.608 37.0854 175.335 37.2632 175.979 37.6155C176.575 37.9456 177.064 38.4375 177.39 39.0339C177.727 39.6611 177.897 40.3633 177.886 41.0742C177.885 41.3529 177.87 41.6313 177.84 41.9084ZM176.101 39.4283C175.873 39.0549 175.542 38.7547 175.147 38.5636C174.732 38.3633 174.274 38.2621 173.812 38.2678C173.151 38.2528 172.509 38.4918 172.02 38.9352C171.508 39.4201 171.204 40.0834 171.173 40.786H176.452C176.465 40.3097 176.343 39.8393 176.101 39.4283ZM181.105 34.3239V45.549H179.716V34.3239H181.105ZM184.987 45.1547C184.354 44.8037 183.835 44.2799 183.492 43.6453C183.12 42.9477 182.933 42.167 182.95 41.3775C182.934 40.5912 183.126 39.8144 183.507 39.1249C183.859 38.4912 184.386 37.9703 185.025 37.6231C185.689 37.2793 186.427 37.0998 187.176 37.0998C187.925 37.0998 188.663 37.2793 189.327 37.6231C189.964 37.9689 190.491 38.4869 190.845 39.1173C191.227 39.8089 191.419 40.5886 191.402 41.3775C191.419 42.1708 191.221 42.954 190.83 43.6453C190.465 44.2816 189.928 44.8043 189.281 45.1547C188.616 45.5122 187.871 45.6949 187.115 45.6856C186.371 45.6956 185.638 45.5126 184.987 45.1547ZM188.519 44.1231C188.965 43.8817 189.333 43.5186 189.579 43.0764C189.862 42.5556 190.002 41.9694 189.983 41.3775C190.001 40.7866 189.865 40.2011 189.586 39.6787C189.349 39.24 188.988 38.8791 188.549 38.6394C188.12 38.4153 187.642 38.2982 187.157 38.2982C186.672 38.2982 186.194 38.4153 185.765 38.6394C185.331 38.8789 184.978 39.2404 184.75 39.6787C184.482 40.2042 184.351 40.7884 184.369 41.3775C184.35 41.9707 184.478 42.5595 184.743 43.0916C184.965 43.5288 185.313 43.8905 185.742 44.1308C186.163 44.3593 186.636 44.4768 187.115 44.472C187.605 44.4742 188.087 44.3542 188.519 44.1231ZM195.849 37.5777C196.427 37.2503 197.083 37.0851 197.748 37.0998C198.458 37.0913 199.156 37.2748 199.769 37.6307C200.376 37.9864 200.87 38.5041 201.196 39.1249C201.553 39.8162 201.731 40.5853 201.715 41.3624C201.729 42.1416 201.55 42.9124 201.196 43.6073C200.875 44.2402 200.381 44.7706 199.772 45.138C199.162 45.5055 198.461 45.6952 197.748 45.6856C197.088 45.699 196.437 45.5338 195.864 45.2077C195.354 44.9225 194.926 44.5126 194.621 44.0169V49.493H193.232V37.2363H194.621V38.7684C194.918 38.2711 195.341 37.8605 195.849 37.5777ZM199.914 39.7241C199.68 39.2796 199.323 38.9112 198.885 38.6623C198.449 38.4188 197.958 38.2933 197.458 38.2983C196.963 38.2947 196.476 38.423 196.047 38.6699C195.607 38.9256 195.248 39.2987 195.01 39.7468C194.754 40.2554 194.621 40.8163 194.621 41.3851C194.621 41.9538 194.754 42.5147 195.01 43.0233C195.247 43.4716 195.607 43.8447 196.047 44.1004C196.476 44.3473 196.963 44.4756 197.458 44.472C197.959 44.4769 198.451 44.3486 198.885 44.1004C199.324 43.8456 199.681 43.4721 199.914 43.0233C200.179 42.51 200.31 41.939 200.296 41.3624C200.309 40.7931 200.178 40.2295 199.914 39.7241ZM215.337 37.4866C215.851 37.76 216.271 38.18 216.542 38.6926C216.854 39.2973 217.006 39.9705 216.985 40.6494V45.549H215.612V40.8467C215.659 40.1567 215.438 39.475 214.994 38.9428C214.779 38.7206 214.519 38.5468 214.231 38.4329C213.943 38.3191 213.633 38.268 213.324 38.283C213.003 38.2681 212.683 38.3221 212.386 38.4412C212.089 38.5604 211.82 38.7418 211.6 38.9732C211.138 39.5326 210.909 40.2461 210.959 40.9679V45.549H209.586V40.8467C209.634 40.1567 209.412 39.475 208.968 38.9428C208.753 38.7206 208.493 38.5468 208.205 38.433C207.917 38.3192 207.607 38.268 207.298 38.283C206.977 38.2681 206.658 38.3221 206.36 38.4412C206.063 38.5604 205.795 38.7418 205.574 38.9732C205.113 39.5326 204.883 40.2461 204.933 40.9679V45.549H203.545V37.2363H204.933V38.4346C205.201 38.0056 205.584 37.6591 206.039 37.4336C206.515 37.198 207.041 37.0784 207.572 37.0847C208.224 37.0719 208.867 37.2343 209.434 37.5548C209.976 37.8722 210.399 38.3569 210.639 38.9352C210.86 38.3636 211.268 37.8827 211.798 37.5701C212.341 37.2453 212.964 37.0773 213.598 37.0847C214.202 37.0738 214.8 37.2119 215.337 37.4866ZM226.84 41.9084H220.158C220.158 42.2587 220.229 42.6053 220.367 42.9277C220.505 43.2501 220.706 43.5417 220.96 43.7851C221.213 44.0285 221.513 44.2188 221.842 44.3446C222.17 44.4704 222.521 44.5293 222.873 44.5176C223.406 44.5369 223.931 44.3911 224.376 44.1004C224.772 43.8296 225.069 43.4384 225.223 42.9855H226.718C226.506 43.7678 226.032 44.4552 225.375 44.9347C224.648 45.4529 223.768 45.7169 222.873 45.6856C222.129 45.698 221.395 45.5149 220.745 45.1547C220.12 44.8011 219.609 44.2775 219.273 43.6453C218.906 42.9463 218.722 42.1662 218.739 41.3776C218.722 40.5931 218.9 39.8165 219.258 39.1174C219.586 38.4882 220.093 37.9687 220.715 37.6231C221.376 37.2653 222.12 37.0849 222.873 37.0998C223.608 37.0854 224.335 37.2633 224.979 37.6155C225.575 37.9456 226.064 38.4375 226.39 39.0339C226.727 39.6611 226.897 40.3633 226.886 41.0742C226.885 41.3529 226.87 41.6313 226.84 41.9084ZM225.101 39.4283C224.873 39.0549 224.542 38.7547 224.147 38.5636C223.732 38.3633 223.275 38.2621 222.812 38.2678C222.151 38.2528 221.509 38.4919 221.02 38.9352C220.508 39.4201 220.204 40.0834 220.173 40.786H225.452C225.465 40.3097 225.343 39.8393 225.101 39.4283ZM235.261 38.0025C235.891 38.6143 236.207 39.4967 236.207 40.6494V45.549H234.834V40.8467C234.881 40.1555 234.657 39.4729 234.208 38.9428C233.987 38.719 233.72 38.5445 233.425 38.4307C233.131 38.317 232.815 38.2666 232.5 38.283C232.176 38.2675 231.854 38.3203 231.553 38.438C231.252 38.5557 230.979 38.7355 230.753 38.9657C230.286 39.5195 230.054 40.2319 230.105 40.9528V45.549H228.716V37.2363H230.105V38.4195C230.38 37.9943 230.768 37.6531 231.226 37.4336C231.713 37.1978 232.248 37.0784 232.789 37.0847C233.242 37.0656 233.694 37.137 234.119 37.2946C234.543 37.4522 234.932 37.693 235.261 38.0025ZM240.173 38.3741V43.2737C240.157 43.4265 240.172 43.5809 240.217 43.728C240.261 43.8751 240.335 44.012 240.432 44.1308C240.69 44.3242 241.011 44.4135 241.332 44.381H242.355V45.549H241.104C240.477 45.5967 239.856 45.407 239.365 45.0182C238.978 44.6643 238.785 44.0828 238.785 43.2737V38.3741H237.702V37.2363H238.785V35.143H240.173V37.2363H242.355V38.3741L240.173 38.3741ZM37.0798 35.5842C37.1381 35.6275 37.2114 35.6459 37.2834 35.6354C37.3554 35.625 37.4203 35.5865 37.4638 35.5285C37.5074 35.4705 37.5259 35.3976 37.5154 35.326C37.5049 35.2544 37.4662 35.1899 37.4078 35.1466L32.5557 31.5485C32.6752 30.8521 32.6328 30.1377 32.4316 29.4602C32.2305 28.7826 31.8759 28.1599 31.3952 27.6397C30.9145 27.1195 30.3203 26.7157 29.6583 26.4593C28.9963 26.2028 28.284 26.1005 27.5761 26.1602C26.8681 26.2199 26.1834 26.44 25.5742 26.8037C24.9651 27.1673 24.4478 27.6648 24.0621 28.2581C23.6763 28.8513 23.4323 29.5245 23.3488 30.2261C23.2652 30.9277 23.3444 31.6389 23.5801 32.3053H17.2026C17.1657 32.3053 17.1292 32.3127 17.0953 32.3271C17.0614 32.3414 17.0307 32.3624 17.0051 32.3888L12.4004 37.1308C12.0234 35.674 11.09 34.4207 9.79865 33.6371C8.50725 32.8534 6.9595 32.6013 5.48412 32.9341C4.00874 33.2669 2.72195 34.1585 1.89703 35.4195C1.0721 36.6805 0.774038 38.2116 1.06613 39.6876C1.35823 41.1636 2.21747 42.4682 3.46137 43.3244C4.70528 44.1807 6.23586 44.521 7.72806 44.2732C9.22026 44.0253 10.5565 43.2089 11.4531 41.9971C12.3496 40.7854 12.7358 39.2739 12.5296 37.7837L17.3192 32.8512H23.8126C24.2278 33.6795 24.8835 34.3649 25.6949 34.8185C26.5062 35.2721 27.4359 35.4731 28.3634 35.3955C29.2909 35.3178 30.1737 34.9651 30.8973 34.383C31.621 33.8009 32.1523 33.0162 32.4224 32.1305L37.0798 35.5842ZM7.05927 42.9102C6.18383 42.9102 5.32806 42.652 4.60018 42.1684C3.8723 41.6848 3.30499 40.9974 2.97 40.1931C2.63502 39.3889 2.54739 38.504 2.7182 37.6502C2.88902 36.7965 3.31061 36.0122 3.92965 35.3967C4.5487 34.7812 5.33739 34.3621 6.19601 34.1923C7.05463 34.0225 7.9446 34.1097 8.75339 34.4428C9.56217 34.776 10.2534 35.3401 10.7398 36.0639C11.2261 36.7877 11.4857 37.6386 11.4857 38.5091C11.4844 39.676 11.0176 40.7947 10.1877 41.6198C9.35791 42.4449 8.2328 42.909 7.05927 42.9102ZM27.9707 34.3202C27.2673 34.3202 26.5798 34.1128 25.9949 33.7243C25.4101 33.3357 24.9542 32.7834 24.6851 32.1373C24.4159 31.4911 24.3454 30.7801 24.4826 30.0942C24.6199 29.4082 24.9586 28.7781 25.4559 28.2836C25.9533 27.789 26.587 27.4522 27.2768 27.3158C27.9667 27.1793 28.6817 27.2494 29.3316 27.517C29.9814 27.7847 30.5368 28.238 30.9276 28.8195C31.3183 29.401 31.5269 30.0847 31.5269 30.7841C31.5258 31.7216 31.1508 32.6204 30.4841 33.2833C29.8174 33.9462 28.9135 34.3191 27.9707 34.3202ZM114.05 33.0161C112.827 33.0183 111.64 33.4234 110.674 34.1679C109.707 34.9123 109.016 35.9543 108.709 37.1308L104.104 32.3888C104.079 32.3624 104.048 32.3414 104.014 32.3271C103.98 32.3128 103.943 32.3054 103.907 32.3054H97.5291C97.7678 31.6379 97.8493 30.9249 97.7673 30.2211C97.6854 29.5174 97.4421 28.8418 97.0563 28.2462C96.6705 27.6507 96.1524 27.1511 95.5419 26.7859C94.9314 26.4207 94.2448 26.1997 93.5349 26.1398C92.825 26.08 92.1107 26.1829 91.4471 26.4406C90.7834 26.6983 90.1881 27.104 89.707 27.6265C89.2258 28.1489 88.8716 28.7742 88.6716 29.4541C88.4716 30.1341 88.4312 30.8506 88.5535 31.5485L83.7014 35.1466C83.6432 35.1899 83.6046 35.2544 83.5942 35.326C83.5838 35.3975 83.6023 35.4702 83.6458 35.5282C83.6892 35.5861 83.754 35.6246 83.826 35.6351C83.8979 35.6456 83.9711 35.6273 84.0294 35.5842L88.6868 32.1306C88.9569 33.0163 89.4882 33.801 90.2119 34.3831C90.9355 34.9652 91.8183 35.3179 92.7458 35.3955C93.6733 35.4731 94.6029 35.2721 95.4143 34.8185C96.2257 34.3649 96.8814 33.6795 97.2966 32.8512H103.79L108.58 37.7837C108.432 38.8908 108.627 40.0164 109.139 41.0103C109.652 42.0042 110.457 42.8191 111.447 43.3462C112.437 43.8734 113.565 44.0877 114.681 43.9606C115.797 43.8335 116.847 43.371 117.692 42.6349C118.537 41.8987 119.136 40.9239 119.409 39.8406C119.682 38.7573 119.616 37.6169 119.22 36.5717C118.824 35.5265 118.117 34.6262 117.194 33.9909C116.27 33.3556 115.173 33.0155 114.05 33.0161ZM93.1385 34.3202C92.4351 34.3201 91.7475 34.1127 91.1627 33.7241C90.5779 33.3356 90.1221 32.7833 89.853 32.1371C89.5838 31.4909 89.5134 30.7799 89.6507 30.094C89.7879 29.4081 90.1267 28.778 90.624 28.2835C91.1214 27.7889 91.7551 27.4522 92.4449 27.3158C93.1348 27.1793 93.8498 27.2494 94.4996 27.5171C95.1495 27.7847 95.7049 28.238 96.0956 28.8195C96.4864 29.4011 96.6949 30.0847 96.6949 30.7841C96.6938 31.7217 96.3188 32.6205 95.652 33.2834C94.9853 33.9463 94.0813 34.3192 93.1385 34.3202ZM114.05 42.9102C113.174 42.9102 112.319 42.652 111.591 42.1684C110.863 41.6848 110.296 40.9974 109.961 40.1931C109.626 39.3889 109.538 38.504 109.709 37.6502C109.88 36.7965 110.301 36.0122 110.92 35.3967C111.539 34.7812 112.328 34.3621 113.187 34.1923C114.045 34.0225 114.935 34.1097 115.744 34.4428C116.553 34.776 117.244 35.3401 117.73 36.0639C118.217 36.7877 118.476 37.6386 118.476 38.5091C118.475 39.676 118.008 40.7947 117.178 41.6198C116.349 42.4448 115.223 42.9089 114.05 42.9102ZM81.8332 36.9447C80.5754 36.9452 79.364 37.4173 78.4409 38.2669L67.3286 28.2009L75.6293 21.5259C75.6595 21.5016 75.6842 21.4712 75.7017 21.4366C75.7193 21.4021 75.7292 21.3643 75.7309 21.3257C75.7326 21.287 75.726 21.2485 75.7116 21.2126C75.6972 21.1767 75.6753 21.1442 75.6473 21.1174L64.349 10.275C65.3033 9.34632 65.8856 8.10441 65.9875 6.78054L78.0615 18.0276C77.1913 19.0113 76.7415 20.2938 76.8079 21.6022C76.8742 22.9107 77.4515 24.1417 78.4168 25.0333C79.382 25.925 80.6592 26.4069 81.9763 26.3764C83.2935 26.346 84.5468 25.8056 85.4694 24.8704C86.392 23.9351 86.9111 22.6787 86.9162 21.3687C86.9214 20.0586 86.4122 18.7982 85.4969 17.8558C84.5817 16.9134 83.3328 16.3633 82.0159 16.3226C80.699 16.2819 79.4181 16.7538 78.4458 17.638L65.9929 6.03789C65.9123 4.6273 65.2874 3.30204 64.2485 2.33817C63.2096 1.3743 61.8367 0.846139 60.4159 0.863706C58.9951 0.881272 57.6359 1.44321 56.6214 2.43247C55.6069 3.42173 55.0154 4.76203 54.97 6.17418L42.6634 17.638C41.6975 16.7604 40.4254 16.2921 39.1176 16.3329C37.8098 16.3736 36.5697 16.9202 35.661 17.8563C34.7523 18.7923 34.2468 20.044 34.2521 21.345C34.2573 22.646 34.7729 23.8936 35.6891 24.8224C36.6053 25.7511 37.8498 26.2878 39.1578 26.3182C40.4659 26.3485 41.7342 25.8701 42.693 24.9849C43.6517 24.0996 44.2252 22.8772 44.2915 21.5779C44.3578 20.2786 43.9115 19.0048 43.0477 18.0276L54.9886 6.90452C55.1222 8.21628 55.7272 9.43609 56.6926 10.3399L45.4622 21.1174C45.4342 21.1442 45.4123 21.1767 45.3979 21.2126C45.3834 21.2485 45.3769 21.287 45.3786 21.3257C45.3803 21.3643 45.3902 21.4021 45.4077 21.4366C45.4252 21.4712 45.4499 21.5016 45.4802 21.5259L53.7806 28.2009L42.6683 38.2669C41.7039 37.3886 40.433 36.9192 39.1258 36.9585C37.8187 36.9977 36.5785 37.5426 35.6692 38.4771C34.7599 39.4116 34.2532 40.6621 34.2569 41.9624C34.2606 43.2627 34.7744 44.5103 35.689 45.4397C36.6036 46.3691 37.8468 46.907 39.1542 46.9389C40.4615 46.9709 41.7298 46.4943 42.6892 45.6106C43.6485 44.727 44.2233 43.506 44.2912 42.2074C44.359 40.9088 43.9146 39.6351 43.0525 38.6574L54.3866 28.3904C54.4158 28.3639 54.439 28.3314 54.4544 28.2952C54.4699 28.259 54.4773 28.2199 54.4761 28.1806C54.4749 28.1413 54.4652 28.1027 54.4476 28.0675C54.43 28.0322 54.405 28.0012 54.3742 27.9765L46.0668 21.2957L57.1115 10.6965C58.0891 11.4535 59.2953 11.8597 60.5344 11.8491C61.7734 11.8385 62.9725 11.4117 63.9368 10.6381L75.0426 21.2957L66.7349 27.9765C66.7042 28.0012 66.6791 28.0322 66.6615 28.0675C66.644 28.1027 66.6342 28.1413 66.6331 28.1806C66.6319 28.2199 66.6393 28.259 66.6548 28.2952C66.6702 28.3314 66.6934 28.3639 66.7226 28.3904L78.0566 38.6574C77.3043 39.5167 76.8706 40.6062 76.8276 41.7447C76.7846 42.8832 77.1349 44.002 77.8202 44.915C78.5056 45.828 79.4847 46.4802 80.5946 46.763C81.7045 47.0458 82.8784 46.9422 83.9208 46.4695C84.9633 45.9967 85.8116 45.1833 86.3245 44.1646C86.8375 43.1458 86.9841 41.9831 86.7402 40.8699C86.4962 39.7568 85.8762 38.7602 84.9835 38.0461C84.0907 37.3319 82.979 36.9433 81.8332 36.9447ZM39.2759 45.8402C38.4998 45.8402 37.7411 45.6114 37.0958 45.1826C36.4505 44.7539 35.9475 44.1445 35.6505 43.4315C35.3535 42.7185 35.2758 41.9339 35.4272 41.177C35.5786 40.4201 35.9524 39.7249 36.5012 39.1792C37.05 38.6335 37.7492 38.2619 38.5104 38.1113C39.2716 37.9608 40.0606 38.038 40.7777 38.3333C41.4947 38.6287 42.1076 39.1288 42.5387 39.7705C42.9699 40.4122 43.2001 41.1665 43.2001 41.9383C43.1989 42.9728 42.7851 43.9646 42.0494 44.6961C41.3138 45.4276 40.3163 45.839 39.2759 45.8402ZM81.8332 17.4118C82.6094 17.4118 83.368 17.6407 84.0134 18.0694C84.6587 18.4982 85.1617 19.1076 85.4587 19.8206C85.7557 20.5336 85.8334 21.3181 85.682 22.075C85.5306 22.8319 85.1568 23.5272 84.608 24.0729C84.0592 24.6186 83.36 24.9902 82.5988 25.1407C81.8376 25.2913 81.0486 25.214 80.3315 24.9187C79.6145 24.6234 79.0016 24.1233 78.5704 23.4816C78.1393 22.8399 77.9091 22.0855 77.9091 21.3138C77.9103 20.2793 78.3241 19.2875 79.0598 18.556C79.7954 17.8245 80.7929 17.413 81.8332 17.4118ZM39.2759 25.2157C38.4998 25.2157 37.7411 24.9869 37.0958 24.5581C36.4505 24.1294 35.9475 23.52 35.6505 22.807C35.3535 22.094 35.2758 21.3095 35.4272 20.5525C35.5786 19.7956 35.9524 19.1004 36.5012 18.5547C37.05 18.009 37.7492 17.6374 38.5104 17.4868C39.2716 17.3362 40.0606 17.4135 40.7776 17.7088C41.4947 18.0042 42.1076 18.5043 42.5387 19.146C42.9699 19.7876 43.2001 20.542 43.2001 21.3138C43.1989 22.3483 42.7851 23.3401 42.0494 24.0716C41.3138 24.8031 40.3163 25.2145 39.2759 25.2157ZM56.0585 6.3563C56.0585 5.48579 56.3181 4.63483 56.8045 3.91103C57.2908 3.18723 57.9822 2.62309 58.791 2.28996C59.5998 1.95683 60.4898 1.86967 61.3484 2.0395C62.2071 2.20933 62.9958 2.62852 63.6148 3.24406C64.2339 3.8596 64.6555 4.64385 64.8262 5.49763C64.997 6.35141 64.9094 7.23639 64.5744 8.04063C64.2393 8.84488 63.672 9.53228 62.9441 10.0159C62.2161 10.4995 61.3603 10.7577 60.4849 10.7577C59.3114 10.7563 58.1863 10.2922 57.3565 9.46705C56.5266 8.64192 56.0598 7.5232 56.0585 6.3563ZM81.8332 45.8402C81.0571 45.8402 80.2984 45.6113 79.6531 45.1826C79.0078 44.7538 78.5048 44.1444 78.2078 43.4315C77.9108 42.7185 77.8331 41.9339 77.9845 41.177C78.1359 40.4201 78.5097 39.7248 79.0585 39.1792C79.6073 38.6335 80.3065 38.2618 81.0677 38.1113C81.8289 37.9607 82.6179 38.038 83.335 38.3333C84.052 38.6287 84.6649 39.1288 85.096 39.7705C85.5272 40.4121 85.7574 41.1665 85.7574 41.9383C85.7562 42.9728 85.3424 43.9646 84.6067 44.6961C83.871 45.4276 82.8736 45.839 81.8332 45.8402ZM65.798 31.9048C66.0309 31.0838 66.0682 30.2202 65.9071 29.3823C65.7459 28.5445 65.3907 27.7555 64.8695 27.078C64.3483 26.4004 63.6756 25.8529 62.9046 25.4789C62.1336 25.1048 61.2856 24.9145 60.4278 24.9231C59.5699 24.9316 58.7259 25.1387 57.9626 25.528C57.1993 25.9174 56.5377 26.4782 56.0303 27.1659C55.5229 27.8537 55.1836 28.6496 55.0393 29.4905C54.895 30.3314 54.9498 31.1941 55.1992 32.0102L45.1837 41.438C45.1558 41.4643 45.1337 41.496 45.119 41.5313C45.1042 41.5666 45.097 41.6045 45.0979 41.6427C45.0988 41.6809 45.1078 41.7185 45.1242 41.753C45.1407 41.7875 45.1642 41.8182 45.1934 41.8431L54.9808 50.2299C55.0794 51.6036 55.6938 52.8903 56.7021 53.8346C57.7104 54.7789 59.0388 55.3117 60.4238 55.3275C61.8088 55.3432 63.1491 54.8407 64.1788 53.9196C65.2085 52.9985 65.8524 51.7261 65.9826 50.355L75.9158 41.8431C75.9449 41.8182 75.9685 41.7875 75.9849 41.753C76.0014 41.7185 76.0103 41.6809 76.0112 41.6427C76.0121 41.6045 76.005 41.5666 75.9902 41.5313C75.9754 41.496 75.9534 41.4643 75.9255 41.438L65.798 31.9048ZM60.4849 26.0168C61.3604 26.0168 62.2162 26.275 62.9441 26.7586C63.672 27.2422 64.2393 27.9296 64.5744 28.7339C64.9094 29.5381 64.997 30.4231 64.8262 31.2769C64.6555 32.1307 64.2339 32.9149 63.6148 33.5304C62.9958 34.146 62.2071 34.5652 61.3484 34.735C60.4898 34.9048 59.5998 34.8177 58.791 34.4846C57.9822 34.1514 57.2909 33.5873 56.8045 32.8635C56.3181 32.1397 56.0585 31.2887 56.0585 30.4182C56.0598 29.2513 56.5266 28.1326 57.3565 27.3075C58.1863 26.4823 59.3114 26.0182 60.4849 26.0168ZM60.4849 54.2362C59.6095 54.2362 58.7537 53.9781 58.0258 53.4944C57.2979 53.0108 56.7306 52.3234 56.3956 51.5192C56.0607 50.7149 55.973 49.83 56.1438 48.9762C56.3147 48.1225 56.7362 47.3383 57.3553 46.7228C57.9743 46.1073 58.763 45.6881 59.6217 45.5183C60.4803 45.3485 61.3702 45.4357 62.179 45.7688C62.9878 46.102 63.6791 46.6661 64.1654 47.3899C64.6518 48.1137 64.9113 48.9647 64.9113 49.8351C64.9099 51.002 64.4431 52.1207 63.6133 52.9458C62.7835 53.7709 61.6584 54.235 60.4849 54.2362ZM65.9982 49.6212C65.9448 48.213 65.3484 46.8792 64.3327 45.8964C63.317 44.9136 61.9599 44.3572 60.5428 44.3425C59.1256 44.3277 57.7571 44.8558 56.721 45.8173C55.6848 46.7787 55.0605 48.0997 54.9774 49.5065L45.7817 41.6267L55.4031 32.5701C55.8305 33.5692 56.5462 34.42 57.4598 35.0146C58.3735 35.6093 59.4439 35.9212 60.5358 35.9109C61.6278 35.9007 62.6921 35.5686 63.5942 34.9569C64.4963 34.3451 65.1957 33.481 65.604 32.474L75.3275 41.6267L65.9982 49.6212Z" fill="url(#paint0_linear_57_54)"/>
<defs>
<linearGradient id="paint0_linear_57_54" x1="134.116" y1="66.3207" x2="94.6859" y2="-25.0253" gradientUnits="userSpaceOnUse">
<stop stop-color="#0F3BA2"/>
<stop offset="1" stop-color="#46C6B6"/>
</linearGradient>
</defs>
</svg>
